<svg width="41" height="40" viewBox="0 0 41 40" fill="none" xmlns="http://www.w3.org/2000/svg">
<g clip-path="url(#clip0_121_1281)">
<path d="M20.2641 16.3477C19.5059 16.3686 18.7653 16.4601 18.0483 16.6148C15.0796 17.4584 12.9014 20.1671 12.9014 23.3695C12.9014 27.2442 16.0901 30.3964 20.0096 30.3964C23.9291 30.3964 27.1177 27.2441 27.1177 23.3695C27.1178 19.5792 24.0662 16.4806 20.2641 16.3477Z" fill="#FBFBFB"/>
<path d="M34.3069 5.86846C30.4879 2.09334 25.4105 0.0142822 20.0099 0.0142822C14.6093 0.0142822 9.53185 2.09334 5.71304 5.86846C2.87894 8.67005 0.990937 12.1572 0.205078 15.9513C2.86236 11.1823 7.99701 7.94361 13.883 7.94361C22.4057 7.94361 29.3532 14.7332 29.4844 23.1281C29.4865 23.2083 29.4875 23.2888 29.4875 23.3695C29.4875 28.5357 25.2358 32.7387 20.0099 32.7387C14.7839 32.7387 10.5323 28.5356 10.5323 23.3695C10.5323 22.7347 10.5968 22.1146 10.719 21.5149C9.40905 23.4111 8.64198 25.7015 8.64198 28.166C8.64198 34.5901 13.8517 39.8338 20.3139 39.9857C25.6007 39.9091 30.5597 37.8394 34.3067 34.1351C38.1256 30.36 40.2288 25.3407 40.2288 20.0018C40.2288 14.6629 38.1256 9.64365 34.3069 5.86846Z" fill="#FBFBFB"/>
<path d="M23.8991 14.8258C21.4703 12.0472 17.8811 10.2859 13.8835 10.2859C6.5857 10.2859 0.648438 16.1552 0.648438 23.3695C0.648438 25.1955 1.02648 26.9736 1.75437 28.6151C2.73269 30.6377 4.06235 32.503 5.71352 34.1351C6.85665 35.2651 8.11327 36.2419 9.45683 37.0577C7.46695 34.625 6.27312 31.5309 6.27312 28.1659C6.27312 21.416 11.0739 15.7545 17.4771 14.3407C18.2838 14.1192 19.1333 14.0003 20.0104 14.0003C20.1008 14.0003 20.1908 14.0019 20.2806 14.0044C20.3877 14.0021 20.495 14.0003 20.6027 14.0003V14.0192C21.7708 14.0908 22.8825 14.3718 23.8991 14.8258Z" fill="#FBFBFB"/>
</g>
<defs>
<clipPath id="clip0_121_1281">
<rect width="40.4341" height="39.9714" fill="white" transform="translate(0 0.0142822)"/>
</clipPath>
</defs>
</svg>
